<?xml version="1.0" encoding="utf-8"?>
<!-- Generator: Adobe Illustrator 22.0.1, SVG Export Plug-In . SVG Version: 6.00 Build 0)  -->
<svg version="1.1" id="Layer_1" xmlns="http://www.w3.org/2000/svg" xmlns:xlink="http://www.w3.org/1999/xlink" x="0px" y="0px"
	 viewBox="0 0 469.4 118" style="enable-background:new 0 0 469.4 118;" xml:space="preserve">
<style type="text/css">
	.st0{fill:#FDDB31;}
	.st1{fill-rule:evenodd;clip-rule:evenodd;fill:#0F1566;}
	.st2{fill-rule:evenodd;clip-rule:evenodd;fill:#FDDB31;}
	.st3{opacity:0.4;fill-rule:evenodd;clip-rule:evenodd;fill:#050200;}
	.st4{fill-rule:evenodd;clip-rule:evenodd;fill:#47C0BA;}
	.st5{fill:#0F1566;}
	.st6{fill:#47C0BA;}
	.st7{fill-rule:evenodd;clip-rule:evenodd;fill:none;stroke:#FDDB31;stroke-miterlimit:10;}
	.st8{clip-path:url(#SVGID_2_);fill-rule:evenodd;clip-rule:evenodd;fill:#47C0BA;}
	.st9{clip-path:url(#SVGID_2_);fill-rule:evenodd;clip-rule:evenodd;fill:#FDDB31;}
	.st10{clip-path:url(#SVGID_2_);fill-rule:evenodd;clip-rule:evenodd;fill:#0F1566;}
	.st11{fill-rule:evenodd;clip-rule:evenodd;fill:#E1EFFA;}
</style>
<g>
	<g>
		<path class="st0" d="M293,59c0,32.6-26.4,59-59,59c-32.6,0-59-26.4-59-59c0-32.6,26.4-59,59-59C266.6,0,293,26.4,293,59z"/>
		<g>
			<path class="st1" d="M208.2,21.5H247L263.8,47v45.4h-55.6V21.5z"/>
			<g id="text_lines_1_">
				<path class="st2" d="M218,80h37v3.2h-37V80z"/>
				<path class="st2" d="M218,70.9h37V74h-37V70.9z"/>
				<path class="st2" d="M218,61.5h37v3.2h-37V61.5z"/>
				<path class="st2" d="M218,52.3h37v3.2h-37V52.3z"/>
				<path class="st2" d="M218,43.1h37v3.1h-37V43.1z"/>
				<path class="st2" d="M218,33.8h27.8v3.1H218V33.8z"/>
			</g>
			<polyline class="st3" points="263.8,47 263.8,58.2 240.9,37.4 			"/>
			<polygon class="st4" points="263.8,47 240.9,37.4 247,21.5 			"/>
		</g>
	</g>
	<g>
		<path class="st0" d="M468.7,59c0,32.6-26.4,59-59,59c-32.6,0-59-26.4-59-59c0-32.6,26.4-59,59-59C442.3,0,468.7,26.4,468.7,59z"/>
		<g>
			<rect x="374.2" y="34.7" class="st1" width="71" height="54"/>
			<polygon class="st1" points="433.7,35.2 385.7,35.2 386.7,29.2 432.7,29.2 			"/>
			<g>
				<rect x="375.7" y="50.2" class="st0" width="68" height="23"/>
				<path class="st5" d="M442.2,51.7v20h-65v-20H442.2 M445.2,48.7h-71v26h71V48.7L445.2,48.7z"/>
			</g>
			<circle class="st6" cx="409.7" cy="61.7" r="20.5"/>
			<circle class="st0" cx="409.7" cy="61.7" r="16.6"/>
			<rect x="432.4" y="38.2" class="st7" width="8" height="7"/>
			<line class="st7" x1="432.3" y1="42.7" x2="440.4" y2="42.7"/>
			<line class="st7" x1="432.3" y1="40.7" x2="440.4" y2="40.7"/>
			<circle class="st5" cx="409.7" cy="61.7" r="14.5"/>
			<circle class="st0" cx="404.9" cy="56.7" r="5"/>
		</g>
	</g>
</g>
<g>
	<path class="st0" d="M119.4,59c0,32.6-26.4,59-59,59c-32.6,0-59-26.4-59-59c0-32.6,26.4-59,59-59C93,0,119.4,26.4,119.4,59z"/>
	<g>
		<g>
			<defs>
				<rect id="SVGID_1_" x="27.7" y="20.5" width="66" height="48"/>
			</defs>
			<clipPath id="SVGID_2_">
				<use xlink:href="#SVGID_1_"  style="overflow:visible;"/>
			</clipPath>
			<rect x="28.9" y="38.2" class="st8" width="21.2" height="75.6"/>
			<path class="st9" d="M46.6,89c0,0.6-0.5,1-1,1H33.5c-0.6,0-1-0.5-1-1l0-45c0-0.6,0.5-1,1-1h12.1c0.6,0,1,0.5,1,1V89z"/>
			<rect x="34.2" y="57.6" class="st10" width="10.6" height="0.7"/>
			<rect x="34.2" y="45.6" class="st10" width="10.6" height="8.2"/>
			<rect x="50.1" y="26.2" class="st10" width="21.2" height="75.6"/>
			<path class="st9" d="M67.7,77c0,0.6-0.5,1-1,1H54.6c-0.6,0-1-0.5-1-1V32c0-0.6,0.5-1,1-1h12.1c0.6,0,1,0.5,1,1V77z"/>
			<rect x="55.4" y="45.6" class="st10" width="10.6" height="0.7"/>
			<rect x="55.4" y="49.9" class="st10" width="10.6" height="0.7"/>
			<rect x="55.4" y="54.1" class="st10" width="10.6" height="0.7"/>
			<rect x="55.4" y="33.6" class="st10" width="10.6" height="8.2"/>
			<rect x="71.3" y="32.6" class="st10" width="21.2" height="75.6"/>
			<path class="st9" d="M88.9,83.4c0,0.6-0.5,1-1,1H75.8c-0.6,0-1-0.5-1-1v-45c0-0.6,0.5-1,1-1h12.1c0.6,0,1,0.5,1,1V83.4z"/>
			<rect x="76.5" y="52" class="st10" width="10.6" height="0.7"/>
			<rect x="76.5" y="56.2" class="st10" width="10.6" height="0.7"/>
			<rect x="76.5" y="40" class="st10" width="10.6" height="8.2"/>
		</g>
		<rect x="34.2" y="61.8" class="st11" width="10.6" height="0.7"/>
		<rect x="34.2" y="66" class="st11" width="10.6" height="0.7"/>
		<rect x="34.2" y="70.3" class="st11" width="10.6" height="0.7"/>
		<polygon class="st11" points="44.8,75.2 34.2,75.2 34.2,74.5 44.8,74.5 		"/>
		<rect x="34.2" y="78.7" class="st11" width="10.6" height="0.7"/>
		<rect x="34.2" y="83.2" class="st11" width="10.6" height="4.1"/>
		<rect x="55.4" y="58.3" class="st1" width="10.6" height="0.7"/>
		<rect x="55.4" y="62.5" class="st1" width="10.6" height="0.7"/>
		<rect x="55.4" y="66.8" class="st11" width="10.6" height="0.7"/>
		<rect x="55.4" y="71.3" class="st11" width="10.6" height="4.1"/>
		<rect x="76.5" y="60.5" class="st1" width="10.6" height="0.7"/>
		<rect x="76.5" y="64.7" class="st11" width="10.6" height="0.7"/>
		<rect x="76.5" y="68.9" class="st11" width="10.6" height="0.7"/>
		<rect x="76.5" y="73.2" class="st11" width="10.6" height="0.7"/>
		<rect x="76.5" y="77.6" class="st11" width="10.6" height="4.1"/>
		<path class="st0" d="M74.7,79.6c0,0.7-0.6,1.2-1.2,1.2H47.9c-0.7,0-1.2-0.6-1.2-1.2v-0.9c0-0.7,0.6-1.2,1.2-1.2h25.5
			c0.7,0,1.2,0.6,1.2,1.2V79.6z"/>
		<polygon class="st5" points="76.6,59.5 75.3,64.5 45.5,64.5 44.2,59.5 25.4,59.5 25.4,91.5 95.4,91.5 95.4,59.5 		"/>
		<rect x="45.9" y="72.5" class="st0" width="29" height="5"/>
	</g>
</g>
</svg>
