<?xml version="1.0" encoding="utf-8"?>
<!-- Generator: Adobe Illustrator 22.0.1, SVG Export Plug-In . SVG Version: 6.00 Build 0)  -->
<svg version="1.1" id="Layer_1" xmlns="http://www.w3.org/2000/svg" xmlns:xlink="http://www.w3.org/1999/xlink" x="0px" y="0px"
	 viewBox="0 0 124.5 124.5" style="enable-background:new 0 0 124.5 124.5;" xml:space="preserve">
<style type="text/css">
	.st0{fill:#FDDB31;}
	.st1{fill:#0D1068;}
	.st2{display:none;fill:#FDDB31;}
</style>
<polygon class="st0" points="65.6,65.4 67.7,72 57.2,81.5 46.5,72.5 54.7,63 61.9,62.7 "/>
<path class="st1" d="M45.2,95.9c-1.3,0-2.2-0.6-2.6-1l0,0l-5.8-5.2c-1.2-1.1-2.9-3.3-0.3-6.5l62.8-72.4l15.3,13.7L49.9,93.4
	C48,95.3,46.4,95.9,45.2,95.9z M41.6,86.2l3.8,3.4c0.1-0.1,0.2-0.2,0.3-0.3l60.4-64.4l-6.3-5.7L41.6,86.2z"/>
<rect x="49.1" y="72.3" transform="matrix(0.6682 -0.744 0.744 0.6682 -41.8968 65.1541)" class="st1" width="6" height="14.5"/>
<rect x="62.3" y="57.2" transform="matrix(0.6716 -0.7409 0.7409 0.6716 -26.127 69.95)" class="st1" width="7.1" height="14.4"/>
<path class="st0" d="M35.9,86c-5.9,0-10.6,4.8-10.6,10.6c0,4.6-4.1,7.1-7.1,7.1c3.3,4.3,8.9,7.1,14.2,7.1c7.8,0,14.2-6.4,14.2-14.2
	C46.5,90.8,41.7,86,35.9,86z"/>
<path class="st2" d="M105.6,11.2c0.1,0.6,0.1,3.8-6.3,12.9C94.2,31.5,86.6,40.4,78,49c-3.6,3.6-7.1,6.9-10.5,9.9l-9.6-9.6
	c3-3.4,6.4-7,9.9-10.5c8.6-8.6,17.5-16.2,24.9-21.3C101.8,11.1,105,11.1,105.6,11.2z"/>
<path class="st2" d="M47.7,62l7.1,7.1c-5,3.6-9.1,6-11.9,7c0-0.1-0.7-1.5-2-2.5C42,70.6,44.3,66.6,47.7,62z"/>
<ellipse class="st0" cx="62.5" cy="109.2" rx="40.6" ry="10.4"/>
<path class="st1" d="M32.4,113.7c-6.2,0-12.6-3.2-16.5-8.2l-3.5-4.6h5.8c1.4,0,4.2-1.3,4.2-4.2c0-7.4,6-13.5,13.5-13.5
	c7.4,0,13.4,6,13.6,13.4C49.5,106,41.8,113.7,32.4,113.7z M23.6,104.9c2.6,1.9,5.8,3,8.8,3c6.2,0,11.3-5.1,11.3-11.3
	c-0.1-4.2-3.6-7.7-7.8-7.7c-4.3,0-7.7,3.5-7.7,7.7C28.2,100.3,26.2,103.2,23.6,104.9z"/>
</svg>
