<?xml version="1.0" encoding="utf-8"?>
<!-- Generator: Adobe Illustrator 22.0.1, SVG Export Plug-In . SVG Version: 6.00 Build 0)  -->
<svg version="1.1" id="Layer_1" xmlns="http://www.w3.org/2000/svg" xmlns:xlink="http://www.w3.org/1999/xlink" x="0px" y="0px"
	 viewBox="0 0 124.5 124.5" style="enable-background:new 0 0 124.5 124.5;" xml:space="preserve">
<style type="text/css">
	.st0{fill:#FDDB31;}
	.st1{display:none;fill:#FDDB31;}
	.st2{fill:none;stroke:#263570;stroke-width:5.8822;stroke-miterlimit:10;}
	.st3{fill:#FDDB31;stroke:#263570;stroke-width:6;stroke-miterlimit:10;}
	.st4{fill:#FDDB31;stroke:#263570;stroke-width:7.0569;stroke-miterlimit:10;}
	.st5{fill:#FDDB31;stroke:#263570;stroke-width:5.7387;stroke-miterlimit:10;}
</style>
<polygon class="st0" points="65.6,65.4 67.7,72 57.2,81.5 46.5,72.5 54.7,63 61.9,62.7 "/>
<path class="st1" d="M105.6,11.2c0.1,0.6,0.1,3.8-6.3,12.9C94.2,31.5,86.6,40.4,78,49c-3.6,3.6-7.1,6.9-10.5,9.9l-9.6-9.6
	c3-3.4,6.4-7,9.9-10.5c8.6-8.6,17.5-16.2,24.9-21.3C101.8,11.1,105,11.1,105.6,11.2z"/>
<path class="st1" d="M47.7,62l7.1,7.1c-5,3.6-9.1,6-11.9,7c0-0.1-0.7-1.5-2-2.5C42,70.6,44.3,66.6,47.7,62z"/>
<ellipse class="st0" cx="62.5" cy="109.2" rx="40.6" ry="10.4"/>
<g>
</g>
<g>
</g>
<g>
</g>
<g>
</g>
<g>
</g>
<g>
</g>
<g>
</g>
<g>
</g>
<g>
</g>
<g>
</g>
<g>
</g>
<g>
</g>
<g>
</g>
<g>
</g>
<g>
</g>
<path class="st2" d="M44.5,92.7l-5.8-5.2c-0.9-0.8-0.9-1.3,0-2.4L99.5,15l10.8,9.7L47.8,91.4C46.8,92.4,45.4,93.5,44.5,92.7z"/>
<line class="st3" x1="46.7" y1="74.7" x2="57.5" y2="84.4"/>
<line class="st4" x1="71.2" y1="69.3" x2="60.5" y2="59.6"/>
<g>
	<g>
		<path class="st5" d="M35.9,86c-5.9,0-10.6,4.8-10.6,10.6c0,4.6-4.1,7.1-7.1,7.1c3.3,4.3,8.9,7.1,14.2,7.1
			c7.8,0,14.2-6.4,14.2-14.2C46.5,90.8,41.7,86,35.9,86z"/>
	</g>
</g>
</svg>
