<?xml version="1.0" encoding="utf-8"?>
<!-- Generator: Adobe Illustrator 22.0.1, SVG Export Plug-In . SVG Version: 6.00 Build 0)  -->
<svg version="1.1" id="Layer_1" xmlns="http://www.w3.org/2000/svg" xmlns:xlink="http://www.w3.org/1999/xlink" x="0px" y="0px"
	 viewBox="0 0 124.5 124.5" style="enable-background:new 0 0 124.5 124.5;" xml:space="preserve">
<style type="text/css">
	.st0{fill:#FDDB31;}
	.st1{fill:#243770;}
	.st2{fill:#243770;stroke:#253670;stroke-width:2.9245;stroke-miterlimit:10;}
</style>
<g>
</g>
<g>
</g>
<g>
</g>
<g>
</g>
<g>
</g>
<g>
</g>
<g>
</g>
<g>
</g>
<g>
</g>
<g>
</g>
<g>
</g>
<g>
</g>
<g>
</g>
<g>
</g>
<g>
</g>
<g>
	<polygon class="st0" points="5.6,86.2 117.5,86.6 118,98.8 6.6,98.8 	"/>
	<polygon class="st1" points="78.2,114.9 45.4,114.9 49.8,96 73.9,96 	"/>
	<polygon class="st0" points="32.2,63.2 75.6,63.2 60,37.9 49.4,55.1 40.8,48.5 	"/>
	<g>
		<g>
			<path class="st2" d="M120.4,16.5H4.1v82.3h42.6l-2.9,14.5h-2.1c0,0-0.1,0-0.1,0c-2.4,2.1-0.9,4.8,1.2,4.8h39.8c0,0,0.1,0,0.1,0
				c2.4-2.1,0.9-4.8-1.2-4.8h-1l-2.9-14.5h42.6V16.5z M9,21.3h87.2v63H9L9,21.3z M48.8,113.3L48.8,113.3l2.9-14.5l21.1,0l2.9,14.5
				L48.8,113.3L48.8,113.3z M115.5,93.9H62.3H9v-4.8h53.3h53.3V93.9z M115.5,84.3H101V50.4h14.5V84.3z M115.5,45.5H101V21.3h14.5
				V45.5z"/>
		</g>
	</g>
	<g>
		<g>
			<path class="st1" d="M60,30.4L48.2,51L42,40.7L26.6,66.3h12.8h18h23.1L60,30.4z M43.3,59.6h-4.8l3.5-5.8l2.4,3.9L43.3,59.6z
				 M51.1,59.6L60,44l8.9,15.6H51.1z"/>
		</g>
	</g>
	<rect x="10.4" y="74.6" class="st0" width="103.7" height="18.4"/>
	<g>
		<g>
			<path class="st1" d="M62.3,84.2c-1.3,0-2.4,1.1-2.4,2.4s1.1,2.4,2.4,2.4c1.3,0,2.4-1.1,2.4-2.4S63.6,84.2,62.3,84.2z"/>
		</g>
	</g>
	<rect x="8.6" y="73.6" class="st1" width="108.7" height="7.5"/>
	<rect x="38.1" y="111.9" class="st1" width="48.3" height="7.8"/>
</g>
</svg>
