<?xml version="1.0" encoding="utf-8"?>
<!-- Generator: Adobe Illustrator 22.0.1, SVG Export Plug-In . SVG Version: 6.00 Build 0)  -->
<svg version="1.1" id="Layer_1" xmlns="http://www.w3.org/2000/svg" xmlns:xlink="http://www.w3.org/1999/xlink" x="0px" y="0px"
	 viewBox="0 0 124.5 124.5" style="enable-background:new 0 0 124.5 124.5;" xml:space="preserve">
<style type="text/css">
	.st0{fill:#FDDB31;}
	.st1{fill:#0D1068;}
	.st2{fill:#243770;}
</style>
<polygon class="st0" points="5.6,86.2 117.5,86.6 118,98.8 6.6,98.8 "/>
<polygon class="st1" points="78.2,114.9 45.4,114.9 49.8,96 73.9,96 "/>
<polygon class="st0" points="32.2,63.2 75.6,63.2 60,37.9 49.4,55.1 40.8,48.5 "/>
<path class="st1" d="M121.7,15H2.6v85.2h42.3l-2.3,11.6H41l-0.4,0.4c-1.6,1.4-2.1,3.2-1.5,4.8c0.6,1.5,2,2.5,3.6,2.5h40.5l0.4-0.4
	c1.6-1.4,2.1-3.2,1.5-4.8c-0.5-1.4-1.9-2.4-3.4-2.5l-2.3-11.6h42.3V15z M10.5,82.8v-60h84.3v60.1L10.5,82.8L10.5,82.8z M102.5,44
	V22.8H114V44H102.5z M102.5,82.8v-31H114v31H102.5z M52.9,100.3h18.7l2.3,11.6H50.6L52.9,100.3z M10.5,92.4v-1.9h103.7v1.9H10.5z"/>
<g>
	<g>
		<path class="st1" d="M60,30.4L48.2,51L42,40.7L26.6,66.3h12.8h18h23.1L60,30.4z M43.3,59.6h-4.8l3.5-5.8l2.4,3.9L43.3,59.6z
			 M51.1,59.6L60,44l8.9,15.6H51.1z"/>
	</g>
</g>
<rect x="10.4" y="74.6" class="st0" width="103.7" height="18.4"/>
<g>
	<g>
		<path class="st2" d="M62.3,84.2c-1.3,0-2.4,1.1-2.4,2.4S61,89,62.3,89s2.4-1.1,2.4-2.4S63.6,84.2,62.3,84.2z"/>
	</g>
</g>
<rect x="8.6" y="73.6" class="st1" width="108.7" height="7.5"/>
<rect x="38.1" y="111.9" class="st1" width="48.3" height="7.8"/>
<g id="Layer_2_1_">
</g>
</svg>
