<?xml version="1.0" encoding="utf-8"?>
<!-- Generator: Adobe Illustrator 22.0.1, SVG Export Plug-In . SVG Version: 6.00 Build 0)  -->
<svg version="1.1" id="Layer_1" xmlns="http://www.w3.org/2000/svg" xmlns:xlink="http://www.w3.org/1999/xlink" x="0px" y="0px"
	 viewBox="0 0 181.1 222.4" style="enable-background:new 0 0 181.1 222.4;" xml:space="preserve">
<style type="text/css">
	.st0{fill:#FDDB46;}
	.st1{fill:none;stroke:#252362;stroke-width:3;stroke-miterlimit:10;}
	.st2{fill:#42C7BD;}
	.st3{fill:#252362;}
	.st4{fill:#FDDB46;stroke:#252362;stroke-width:2.9015;stroke-miterlimit:10;}
	.st5{fill:#42C7BD;stroke:#252362;stroke-width:2.6141;stroke-miterlimit:10;}
	.st6{fill:#42C7BD;stroke:#252362;stroke-width:3;stroke-miterlimit:10;}
	
		.st7{clip-path:url(#SVGID_2_);fill:#42C7BD;stroke:#252362;stroke-width:3;stroke-linecap:square;stroke-linejoin:round;stroke-miterlimit:10;}
	
		.st8{clip-path:url(#SVGID_4_);fill:none;stroke:#252362;stroke-width:3;stroke-linecap:square;stroke-linejoin:round;stroke-miterlimit:10;}
	
		.st9{clip-path:url(#SVGID_6_);fill:#42C7BD;stroke:#252362;stroke-width:3;stroke-linecap:square;stroke-linejoin:round;stroke-miterlimit:10;}
	
		.st10{clip-path:url(#SVGID_8_);fill:none;stroke:#252362;stroke-width:1.5;stroke-linecap:square;stroke-linejoin:round;stroke-miterlimit:10;}
	
		.st11{clip-path:url(#SVGID_10_);fill:none;stroke:#252362;stroke-width:1.5;stroke-linecap:square;stroke-linejoin:round;stroke-miterlimit:10;}
	
		.st12{clip-path:url(#SVGID_12_);fill:none;stroke:#252362;stroke-width:1.5;stroke-linecap:square;stroke-linejoin:round;stroke-miterlimit:10;}
	.st13{fill:#FDDB46;stroke:#252362;stroke-width:2.8151;stroke-miterlimit:10;}
	.st14{fill:none;stroke:#252362;stroke-width:2;stroke-miterlimit:10;}
	.st15{fill:none;stroke:#252362;stroke-width:2.4105;stroke-miterlimit:10;}
	.st16{fill:none;stroke:#252362;stroke-width:2.8151;stroke-miterlimit:10;}
	
		.st17{clip-path:url(#SVGID_14_);fill:none;stroke:#252362;stroke-width:3;stroke-linecap:square;stroke-linejoin:round;stroke-miterlimit:10;}
	
		.st18{clip-path:url(#SVGID_16_);fill:#42C7BD;stroke:#252362;stroke-width:1.5;stroke-linecap:square;stroke-linejoin:round;stroke-miterlimit:10;}
</style>
<g>
	<rect class="st0" width="181.1" height="222.4"/>
	<path class="st1" d="M146.4,140.7l-13.7-6.1l-17.4-4.4c-0.4-0.1-0.9,0.2-0.9,0.7l0.1,8L137,153c0,0,1.9,4.9-1.6,7
		c-3.8,2.3-13.6-5.6-14.9-15l-9.1-6.2l0.7,17.2c0,0.8,0.3,1.6,0.9,2.2l15.3,18.2l13.1,18.5l15.2,23.6l21.5-16.8
		c0,0-12.2-15.7-13.3-27.5c-1.1-10.8,0.8-21.1,1.3-23.9c0.1-0.5-0.1-1-0.5-1.3l-13.8-9.5l-12.1-7.7l-6.8-0.1l-1.2,4"/>
	<polygon class="st2" points="109.8,131 108,133.4 96.2,125 99.3,123.5 	"/>
	
		<rect x="105.9" y="124.6" transform="matrix(0.5806 -0.8142 0.8142 0.5806 -61.8581 143.597)" class="st3" width="5.1" height="14.5"/>
	<polygon class="st4" points="152.8,158.6 148.3,165 107.9,135.9 112.4,129.5 	"/>
	<polygon class="st5" points="125.9,139.4 121.3,145.8 113.7,140.1 118.3,133.7 	"/>
	<path class="st1" d="M76.4,44.6c-8.3-8.3-8.3-21.8,0-30.2s21.8-8.3,30.2,0L76.4,44.6z"/>
	<circle class="st6" cx="9.5" cy="46" r="6.9"/>
	<polygon class="st3" points="83.3,8.9 81.6,9.2 72,18.8 70.9,21.2 63.2,13.6 75.6,1.2 	"/>
	<path class="st6" d="M98.5,22.7c1.6,1.7,2.7,4,2.7,6.6c0,5.2-4.2,9.5-9.5,9.5c-2.6,0-5-1.1-6.7-2.8C85,36,98.4,22.6,98.5,22.7"/>
	<line class="st1" x1="71.1" y1="17.5" x2="15.7" y2="42.4"/>
	<line class="st1" x1="12.1" y1="52.2" x2="45.1" y2="101"/>
	<g>
		<defs>
			<polygon id="SVGID_1_" points="85.7,189.8 59.2,174.7 60,137 86.5,152 			"/>
		</defs>
		<use xlink:href="#SVGID_1_"  style="overflow:visible;fill:#42C7BD;"/>
		<clipPath id="SVGID_2_">
			<use xlink:href="#SVGID_1_"  style="overflow:visible;"/>
		</clipPath>
		<polygon class="st7" points="85.7,189.8 59.2,174.7 60,137 86.5,152 		"/>
		
			<use xlink:href="#SVGID_1_"  style="overflow:visible;fill:none;stroke:#252362;stroke-width:3;stroke-linecap:square;stroke-linejoin:round;stroke-miterlimit:10;"/>
	</g>
	<g>
		<defs>
			<polygon id="SVGID_3_" points="86.5,152 51.4,156.3 24.9,141.3 60,137 			"/>
		</defs>
		<clipPath id="SVGID_4_">
			<use xlink:href="#SVGID_3_"  style="overflow:visible;"/>
		</clipPath>
		<polygon class="st8" points="86.5,152 51.4,156.3 24.9,141.3 60,137 		"/>
		
			<use xlink:href="#SVGID_3_"  style="overflow:visible;fill:none;stroke:#252362;stroke-width:3;stroke-linecap:square;stroke-linejoin:round;stroke-miterlimit:10;"/>
	</g>
	<g>
		<defs>
			<polygon id="SVGID_5_" points="50.7,194.1 24.1,179.1 59.2,174.7 85.7,189.8 			"/>
		</defs>
		<use xlink:href="#SVGID_5_"  style="overflow:visible;fill:#42C7BD;"/>
		<clipPath id="SVGID_6_">
			<use xlink:href="#SVGID_5_"  style="overflow:visible;"/>
		</clipPath>
		<polygon class="st9" points="50.7,194.1 24.1,179.1 59.2,174.7 85.7,189.8 		"/>
		
			<use xlink:href="#SVGID_5_"  style="overflow:visible;fill:none;stroke:#252362;stroke-width:3;stroke-linecap:square;stroke-linejoin:round;stroke-miterlimit:10;"/>
	</g>
	<g>
		<defs>
			<polygon id="SVGID_7_" points="111,199.1 94.7,189.8 95.1,166.6 111.4,175.8 			"/>
		</defs>
		<clipPath id="SVGID_8_">
			<use xlink:href="#SVGID_7_"  style="overflow:visible;"/>
		</clipPath>
		<polygon class="st10" points="111,199.1 94.7,189.8 95.1,166.6 111.4,175.8 		"/>
		
			<use xlink:href="#SVGID_7_"  style="overflow:visible;fill:none;stroke:#252362;stroke-width:1.5;stroke-linecap:square;stroke-linejoin:round;stroke-miterlimit:10;"/>
	</g>
	<g>
		<defs>
			<polygon id="SVGID_9_" points="111.4,175.8 89.8,178.5 73.5,169.2 95.1,166.6 			"/>
		</defs>
		<clipPath id="SVGID_10_">
			<use xlink:href="#SVGID_9_"  style="overflow:visible;"/>
		</clipPath>
		<polygon class="st11" points="111.4,175.8 89.8,178.5 73.5,169.2 95.1,166.6 		"/>
		
			<use xlink:href="#SVGID_9_"  style="overflow:visible;fill:none;stroke:#252362;stroke-width:1.5;stroke-linecap:square;stroke-linejoin:round;stroke-miterlimit:10;"/>
	</g>
	<g>
		<defs>
			<polygon id="SVGID_11_" points="89.4,201.7 73,192.5 94.7,189.8 111,199.1 			"/>
		</defs>
		<clipPath id="SVGID_12_">
			<use xlink:href="#SVGID_11_"  style="overflow:visible;"/>
		</clipPath>
		<polygon class="st12" points="89.4,201.7 73,192.5 94.7,189.8 111,199.1 		"/>
		
			<use xlink:href="#SVGID_11_"  style="overflow:visible;fill:none;stroke:#252362;stroke-width:1.5;stroke-linecap:square;stroke-linejoin:round;stroke-miterlimit:10;"/>
	</g>
	<path class="st6" d="M21.6,123.8c0-14,11.3-25.3,25.3-25.3s25.3,11.3,25.3,25.3H21.6z"/>
	<path class="st3" d="M61.8,118.2h-3.3c-1.3,0-2.5-1.1-2.5-2.5v0c0-1.3,1.1-2.5,2.5-2.5h3.3c1.3,0,2.5,1.1,2.5,2.5v0
		C64.2,117.1,63.1,118.2,61.8,118.2z"/>
	<rect x="119.6" y="51.1" class="st2" width="10" height="20.9"/>
	<g>
		<rect x="134.5" y="33.5" class="st13" width="11.9" height="42.6"/>
		<line class="st14" x1="134.9" y1="38.5" x2="141.6" y2="38.5"/>
		<line class="st14" x1="134.9" y1="42.3" x2="139.6" y2="42.3"/>
		<line class="st14" x1="134.9" y1="46" x2="139.6" y2="46"/>
		<line class="st14" x1="134.9" y1="49.8" x2="141.6" y2="49.8"/>
		<line class="st14" x1="134.9" y1="53.5" x2="139.6" y2="53.5"/>
		<line class="st14" x1="134.9" y1="57.3" x2="139.6" y2="57.3"/>
		<line class="st14" x1="134.9" y1="61" x2="141.6" y2="61"/>
		<line class="st14" x1="134.9" y1="64.8" x2="139.6" y2="64.8"/>
		<line class="st14" x1="134.9" y1="68.5" x2="139.6" y2="68.5"/>
	</g>
	<g>
		<polygon class="st2" points="152.4,62.6 150,59.9 152.9,53.1 160,55.1 158.1,61.4 154.8,63.1 		"/>
		<path class="st3" d="M155.5,43.7c0.6-0.3,1.2-0.2,1.5-0.1l0,0l3.9,1.2c0.8,0.3,2.1,0.9,1.6,3l-14.1,48L138,92.7l15.8-46.8
			C154.3,44.6,154.9,43.9,155.5,43.7z M159.3,47.5l-2.5-0.8c0,0.1-0.1,0.1-0.1,0.2L142,90.6l4.2,1.3L159.3,47.5z"/>
		
			<rect x="154.2" y="49.2" transform="matrix(0.2986 -0.9544 0.9544 0.2986 58.7271 185.7923)" class="st3" width="3.1" height="7.6"/>
		<rect x="150.7" y="59.3" transform="matrix(0.303 -0.953 0.953 0.303 46.1782 189.3542)" class="st3" width="3.7" height="7.5"/>
		<path class="st2" d="M162.1,46.4c2.8-1.3,4-4.6,2.7-7.3c-1-2.2,0.4-4.3,1.8-4.9c-2.5-1.3-5.8-1.4-8.3-0.3
			c-3.7,1.7-5.4,6.1-3.7,9.8C156,46.4,159.3,47.6,162.1,46.4z"/>
		<path class="st3" d="M157.7,32.4c2.9-1.3,6.7-1.2,9.6,0.3l2.7,1.4l-2.8,1.3c-0.7,0.3-1.7,1.5-1.1,2.9c1.6,3.5,0.1,7.7-3.5,9.3
			c-3.5,1.6-7.7,0.1-9.4-3.4C151.3,39.8,153.2,34.5,157.7,32.4z M163.8,34.7c-1.6-0.3-3.4-0.2-4.8,0.5c-2.9,1.3-4.3,4.9-2.9,7.8
			c1,2,3.4,2.9,5.4,2c2-0.9,2.9-3.3,2-5.3C162.6,37.9,162.9,36.1,163.8,34.7z"/>
	</g>
	<path class="st15" d="M124.8,40l4.9,10.1v25.6h-10.1V50.1l4.5-10C124.3,39.8,124.7,39.8,124.8,40z"/>
	<line class="st16" x1="124.7" y1="50.3" x2="124.7" y2="71.5"/>
	<line class="st16" x1="119.6" y1="51.1" x2="128.9" y2="51.1"/>
	<polygon class="st13" points="155.9,115.8 119.1,115.8 117.3,82.5 157.7,82.5 	"/>
	<polygon class="st6" points="160.7,84.8 114.3,84.8 113.3,70.7 161.7,70.7 	"/>
	<g>
		<defs>
			<polygon id="SVGID_13_" points="51.4,156.3 50.7,194.1 24.1,179.1 24.9,141.3 			"/>
		</defs>
		<clipPath id="SVGID_14_">
			<use xlink:href="#SVGID_13_"  style="overflow:visible;"/>
		</clipPath>
		<polygon class="st17" points="51.4,156.3 50.7,194.1 24.1,179.1 24.9,141.3 		"/>
		
			<use xlink:href="#SVGID_13_"  style="overflow:visible;fill:none;stroke:#252362;stroke-width:3;stroke-linecap:square;stroke-linejoin:round;stroke-miterlimit:10;"/>
	</g>
	<g>
		<defs>
			<polygon id="SVGID_15_" points="89.8,178.5 89.4,201.7 73,192.5 73.5,169.2 			"/>
		</defs>
		<use xlink:href="#SVGID_15_"  style="overflow:visible;fill:#42C7BD;"/>
		<clipPath id="SVGID_16_">
			<use xlink:href="#SVGID_15_"  style="overflow:visible;"/>
		</clipPath>
		<polygon class="st18" points="89.8,178.5 89.4,201.7 73,192.5 73.5,169.2 		"/>
		
			<use xlink:href="#SVGID_15_"  style="overflow:visible;fill:none;stroke:#252362;stroke-width:1.5;stroke-linecap:square;stroke-linejoin:round;stroke-miterlimit:10;"/>
	</g>
</g>
</svg>
