<?xml version="1.0" encoding="utf-8"?>
<!-- Generator: Adobe Illustrator 22.0.1, SVG Export Plug-In . SVG Version: 6.00 Build 0)  -->
<svg version="1.1" id="Layer_1" xmlns="http://www.w3.org/2000/svg" xmlns:xlink="http://www.w3.org/1999/xlink" x="0px" y="0px"
	 viewBox="0 0 131.5 131.5" style="enable-background:new 0 0 131.5 131.5;" xml:space="preserve">
<style type="text/css">
	.st0{fill:#242462;}
	.st1{fill:#FDDA31;}
	.st2{fill:#47C0BA;}
</style>
<circle class="st0" cx="65.8" cy="65.8" r="65.8"/>
<path class="st1" d="M109.3,98.2h-86V35.7h86V98.2z M28.3,93.2h76V40.7h-76V93.2z"/>
<g>
	<path class="st2" d="M86.6,61.9H46c-2.9,0-5.3-2.4-5.3-5.3l0,0c0-2.9,2.4-5.3,5.3-5.3h40.7c2.9,0,5.3,2.4,5.3,5.3l0,0
		C92,59.5,89.6,61.9,86.6,61.9z"/>
	<path class="st2" d="M86.6,82.6H46c-2.9,0-5.3-2.4-5.3-5.3l0,0c0-2.9,2.4-5.3,5.3-5.3h40.7c2.9,0,5.3,2.4,5.3,5.3l0,0
		C92,80.2,89.6,82.6,86.6,82.6z"/>
	<path class="st0" d="M85.5,56.6c0,2.1-1.7,3.9-3.9,3.9c-2.1,0-3.9-1.7-3.9-3.9c0-2.1,1.7-3.9,3.9-3.9
		C83.7,52.7,85.5,54.5,85.5,56.6z"/>
	<g>
		<path class="st1" d="M51.1,73.4c-2.1,0-3.9,1.7-3.9,3.9c0,2.1,1.7,3.9,3.9,3.9c2.1,0,3.9-1.7,3.9-3.9S53.2,73.4,51.1,73.4
			L51.1,73.4z"/>
	</g>
</g>
</svg>
