<?xml version="1.0" encoding="utf-8"?>
<!-- Generator: Adobe Illustrator 22.0.1, SVG Export Plug-In . SVG Version: 6.00 Build 0)  -->
<svg version="1.1" id="Layer_1" xmlns="http://www.w3.org/2000/svg" xmlns:xlink="http://www.w3.org/1999/xlink" x="0px" y="0px"
	 viewBox="0 0 131.5 131.5" style="enable-background:new 0 0 131.5 131.5;" xml:space="preserve">
<style type="text/css">
	.st0{fill:#242462;}
	.st1{fill:#FDDA31;}
	.st2{fill:#47C0BA;}
</style>
<g>
	<circle class="st0" cx="65.8" cy="65.8" r="65.8"/>
	<g>
		<path class="st1" d="M96.1,27.8v77.7H53.8L35.4,87.2V27.8H96.1 M101.1,22.8H30.4v66.5l21.2,21.2h49.4V22.8L101.1,22.8z"/>
	</g>
	<g>
		<polygon class="st1" points="87.8,78.2 47.8,78.2 47.8,82.6 87.8,82.6 		"/>
	</g>
	<rect x="47.8" y="88.5" class="st0" width="39.9" height="4.4"/>
	<g>
		<polygon class="st1" points="87.8,66.8 47.8,66.8 47.8,71.2 87.8,71.2 		"/>
	</g>
	<g>
		<polygon class="st1" points="87.8,55.3 47.8,55.3 47.8,59.8 87.8,59.8 		"/>
	</g>
	<g>
		<polygon class="st1" points="87.8,43.9 47.8,43.9 47.8,48.3 87.8,48.3 		"/>
	</g>
	<path class="st2" d="M42.8,46.1c0,1.4-1.1,2.5-2.5,2.5s-2.5-1.1-2.5-2.5s1.1-2.5,2.5-2.5S42.8,44.7,42.8,46.1z"/>
	<path class="st2" d="M42.8,57.5c0,1.4-1.1,2.5-2.5,2.5s-2.5-1.1-2.5-2.5s1.1-2.5,2.5-2.5C41.6,55.1,42.8,56.2,42.8,57.5z"/>
	<path class="st2" d="M42.8,69c0,1.4-1.1,2.5-2.5,2.5s-2.5-1.1-2.5-2.5s1.1-2.5,2.5-2.5S42.8,67.6,42.8,69z"/>
	<path class="st2" d="M42.8,80.4c0,1.4-1.1,2.5-2.5,2.5s-2.5-1.1-2.5-2.5s1.1-2.5,2.5-2.5C41.6,78,42.8,79.1,42.8,80.4z"/>
	<g>
		<polygon class="st1" points="87.8,90.2 47.8,90.2 47.8,94.6 87.8,94.6 		"/>
	</g>
	<polygon class="st2" points="51.6,110.5 51.6,89.3 30.3,89.3 	"/>
</g>
</svg>
