<?xml version="1.0" encoding="utf-8"?>
<!-- Generator: Adobe Illustrator 22.0.1, SVG Export Plug-In . SVG Version: 6.00 Build 0)  -->
<svg version="1.1" id="Layer_1" xmlns="http://www.w3.org/2000/svg" xmlns:xlink="http://www.w3.org/1999/xlink" x="0px" y="0px"
	 viewBox="0 0 124.5 124.5" style="enable-background:new 0 0 124.5 124.5;" xml:space="preserve">
<style type="text/css">
	.st0{fill:#FDDB31;}
	.st1{display:none;fill:#00C3FF;}
	.st2{display:none;fill:#F2427F;}
	.st3{fill:#263570;}
</style>
<circle class="st0" cx="92.5" cy="35.4" r="4.6"/>
<polygon class="st0" points="35,65.7 61,92.7 46.3,98.7 28,79.3 "/>
<polygon class="st0" points="91.7,69.3 90.7,90.7 77,102.7 70,87 "/>
<polygon class="st0" points="60,37.7 41.3,56.7 25,50.3 38.7,35.7 "/>
<path class="st1" d="M37.4,69.7c1.6,2.9,4.1,6.8,8,10.7c4,4,8,6.6,10.9,8.2c11.5-8.9,23-17.9,34.5-26.8c14.3-11.1,23-27.8,23.9-45.9
	l0.1-1c0.1-1.7-1.3-3-3-2.9l-2,0.1c-17.2,1.1-33.2,9.4-44.1,22.8L37.4,69.7z"/>
<circle class="st2" cx="86.4" cy="41" r="6.9"/>
<g>
</g>
<g>
</g>
<g>
</g>
<g>
</g>
<g>
</g>
<g>
</g>
<g>
</g>
<g>
</g>
<g>
</g>
<g>
</g>
<g>
</g>
<g>
</g>
<g>
</g>
<g>
</g>
<g>
</g>
<g>
	<path class="st3" d="M114.8,14.4l-0.5-1.4l-1.4-0.5c-4.4-1.7-9.1-2.5-13.8-2.5c-10.4,0-20.3,4.1-27.6,11.5L61,31.9l-23.4,1.1
		L18,52.6L34.9,58l-6.2,6.2l3.6,3.6l-8.1,12.4L47,103.1l12.4-8.1l3.6,3.6l6.2-6.2l5.4,16.9l19.6-19.6l1.1-23.4l10.5-10.5
		C116.7,45.1,120.2,28.8,114.8,14.4z M30.2,49.7l10.2-10.2l13.7-0.7L40.1,52.8L30.2,49.7z M47.9,94.8L32.5,79.4l4.4-6.8l17.7,17.7
		L47.9,94.8z M87.9,86.9L77.7,97.2l-3.2-9.9l14.1-14.1L87.9,86.9z M63.1,89.5L37.8,64.3L76,26.1c6.2-6.2,14.3-9.5,23-9.5
		c3.5,0,6.9,0.5,10.1,1.6c3.8,11.6,0.8,24.5-7.9,33.2L63.1,89.5z"/>
	<path class="st3" d="M92.2,25.3c-2.6,0-5.1,1-6.9,2.9c-3.8,3.8-3.8,10,0,13.8c1.8,1.8,4.3,2.9,6.9,2.9c2.6,0,5.1-1,6.9-2.9
		c3.8-3.8,3.8-10,0-13.8C97.3,26.4,94.8,25.3,92.2,25.3z M94.5,37.4c-0.6,0.6-1.4,1-2.3,1s-1.7-0.3-2.3-1c-1.3-1.3-1.3-3.3,0-4.6
		c0.6-0.6,1.4-1,2.3-1s1.7,0.3,2.3,1C95.8,34.1,95.8,36.1,94.5,37.4z"/>
	<path class="st3" d="M13,91.5l7.4-7.4l4.6,4.6l-7.4,7.4L13,91.5z M35.8,114.3l-4.6-4.6l7.4-7.4l4.6,4.6L35.8,114.3z M18.4,104
		l10.9-10.9l4.6,4.6L23,108.6L18.4,104z"/>
</g>
<g>
</g>
<g>
</g>
<g>
</g>
<g>
</g>
<g>
</g>
<g>
</g>
<g>
</g>
<g>
</g>
<g>
</g>
<g>
</g>
<g>
</g>
<g>
</g>
<g>
</g>
<g>
</g>
<g>
</g>
</svg>
