<?xml version="1.0" encoding="utf-8"?>
<!-- Generator: Adobe Illustrator 22.0.1, SVG Export Plug-In . SVG Version: 6.00 Build 0)  -->
<svg version="1.1" id="Layer_1" xmlns="http://www.w3.org/2000/svg" xmlns:xlink="http://www.w3.org/1999/xlink" x="0px" y="0px"
	 viewBox="0 0 131.5 131.5" style="enable-background:new 0 0 131.5 131.5;" xml:space="preserve">
<style type="text/css">
	.st0{fill:#242462;}
	.st1{fill:#FDDA31;}
	.st2{fill:#47C0BA;}
</style>
<circle class="st0" cx="65.8" cy="65.8" r="65.8"/>
<path class="st1" d="M45.4,112.9h-16v-86h16V112.9z M34.4,107.9h6v-76h-6V107.9z"/>
<path class="st2" d="M73.8,112.9h-16v-86h16V112.9z M62.8,107.9h6v-76h-6V107.9z"/>
<path class="st1" d="M102.2,112.9h-16v-86h16V112.9z M91.2,107.9h6v-76h-6V107.9z"/>
<path class="st2" d="M103,51.6H85.3c-2.8,0-5.1-2.3-5.1-5.1l0,0c0-2.8,2.3-5.1,5.1-5.1H103c2.8,0,5.1,2.3,5.1,5.1l0,0
	C108.1,49.3,105.8,51.6,103,51.6z"/>
<path class="st1" d="M74.6,90.4H56.9c-2.8,0-5.1-2.3-5.1-5.1l0,0c0-2.8,2.3-5.1,5.1-5.1h17.7c2.8,0,5.1,2.3,5.1,5.1l0,0
	C79.7,88,77.4,90.4,74.6,90.4z"/>
<path class="st2" d="M46.2,67.7H28.5c-2.8,0-5.1-2.3-5.1-5.1l0,0c0-2.8,2.3-5.1,5.1-5.1h17.7c2.8,0,5.1,2.3,5.1,5.1l0,0
	C51.3,65.4,49,67.7,46.2,67.7z"/>
<rect x="28.7" y="61.3" class="st0" width="17.3" height="2.5"/>
<rect x="85.5" y="45.3" class="st0" width="17.3" height="2.5"/>
<rect x="57.1" y="84" class="st0" width="17.3" height="2.5"/>
</svg>
