<?xml version="1.0" encoding="utf-8"?>
<!-- Generator: Adobe Illustrator 22.0.1, SVG Export Plug-In . SVG Version: 6.00 Build 0)  -->
<svg version="1.1" id="Layer_1" xmlns="http://www.w3.org/2000/svg" xmlns:xlink="http://www.w3.org/1999/xlink" x="0px" y="0px"
	 viewBox="0 0 131.5 131.5" style="enable-background:new 0 0 131.5 131.5;" xml:space="preserve">
<style type="text/css">
	.st0{fill:#242462;}
	.st1{fill:none;stroke:#FDDA31;stroke-width:5;stroke-miterlimit:10;}
	.st2{fill:none;stroke:#47C0BA;stroke-width:5;stroke-miterlimit:10;}
	.st3{fill:#47C0BA;}
	.st4{fill:#FDDA31;}
</style>
<circle class="st0" cx="65.8" cy="65.8" r="65.8"/>
<rect x="31.9" y="29.4" class="st1" width="11" height="81"/>
<rect x="60.3" y="29.4" class="st2" width="11" height="81"/>
<rect x="88.7" y="29.4" class="st1" width="11" height="81"/>
<path class="st3" d="M103,51.6H85.3c-2.8,0-5.1-2.3-5.1-5.1v0c0-2.8,2.3-5.1,5.1-5.1H103c2.8,0,5.1,2.3,5.1,5.1v0
	C108.1,49.3,105.8,51.6,103,51.6z"/>
<path class="st4" d="M74.6,90.4H56.9c-2.8,0-5.1-2.3-5.1-5.1v0c0-2.8,2.3-5.1,5.1-5.1h17.7c2.8,0,5.1,2.3,5.1,5.1v0
	C79.7,88,77.4,90.4,74.6,90.4z"/>
<path class="st3" d="M46.2,67.7H28.5c-2.8,0-5.1-2.3-5.1-5.1v0c0-2.8,2.3-5.1,5.1-5.1h17.7c2.8,0,5.1,2.3,5.1,5.1v0
	C51.3,65.4,49,67.7,46.2,67.7z"/>
<rect x="28.7" y="61.3" class="st0" width="17.3" height="2.5"/>
<rect x="85.5" y="45.3" class="st0" width="17.3" height="2.5"/>
<rect x="57.1" y="84" class="st0" width="17.3" height="2.5"/>
</svg>
