<?xml version="1.0" encoding="utf-8"?>
<!-- Generator: Adobe Illustrator 22.0.1, SVG Export Plug-In . SVG Version: 6.00 Build 0)  -->
<svg version="1.1" id="Layer_1" xmlns="http://www.w3.org/2000/svg" xmlns:xlink="http://www.w3.org/1999/xlink" x="0px" y="0px"
	 viewBox="0 0 101.1 67.6" style="enable-background:new 0 0 101.1 67.6;" xml:space="preserve">
<style type="text/css">
	.st0{clip-path:url(#SVGID_2_);fill:#0D1068;}
	.st1{clip-path:url(#SVGID_2_);}
	.st2{fill:#FDDB31;}
	.st3{fill:#39C7BD;}
	.st4{fill:#0D1068;}
</style>
<g>
	<defs>
		<rect id="SVGID_1_" width="101.1" height="67.6"/>
	</defs>
	<clipPath id="SVGID_2_">
		<use xlink:href="#SVGID_1_"  style="overflow:visible;"/>
	</clipPath>
	<rect class="st0" width="101.1" height="67.6"/>
	<g class="st1">
		<polygon class="st2" points="71.6,5.7 29.5,5.7 50.6,22.6 		"/>
		<polygon class="st2" points="46.6,25.8 21.5,5.7 5.7,5.7 5.7,58.8 		"/>
		<polygon class="st2" points="79.5,5.7 54.6,25.8 95.4,58.4 95.4,5.7 		"/>
		<polygon class="st2" points="50.6,29 9.8,61.9 91.7,61.9 		"/>
	</g>
	<g class="st1">
		<polygon class="st3" points="1.6,2.8 100.2,2.8 50.9,42.6 		"/>
		<path class="st4" d="M91.7,5.8L50.9,38.7L10.1,5.8H91.7 M108.7-0.2h-17H10.1h-17L6.3,10.5l40.8,32.9l3.8,3l3.8-3l40.8-32.9
			L108.7-0.2L108.7-0.2z"/>
	</g>
</g>
</svg>
