<?xml version="1.0" encoding="utf-8"?>
<!-- Generator: Adobe Illustrator 22.0.1, SVG Export Plug-In . SVG Version: 6.00 Build 0)  -->
<svg version="1.1" id="Layer_1" xmlns="http://www.w3.org/2000/svg" xmlns:xlink="http://www.w3.org/1999/xlink" x="0px" y="0px"
	 viewBox="0 0 76.8 104.1" style="enable-background:new 0 0 76.8 104.1;" xml:space="preserve">
<style type="text/css">
	.st0{fill:none;stroke:#0D1068;stroke-width:7;stroke-miterlimit:10;}
	.st1{fill:#39C7BD;}
</style>
<g id="Layer_2_1_">
</g>
<path class="st0" d="M48.4,100.5c-0.3,0.2-0.7,0.1-1-0.1c-14.2-9.3-26.1-22.4-34.1-38.8S2.4,27.8,3.9,10.9c0-0.4,0.2-0.7,0.6-0.8
	l11.1-5.4l10.8,22.2l-11.5,5.6l22.4,46l11.5-5.6l10.8,22.2L48.4,100.5z"/>
<path class="st1" d="M43.9,13.8c10.4,3.6,18.8,11,23.6,20.9c4.9,10,5.5,21.2,1.8,31.7l4.7,1.7c4.1-11.7,3.4-24.4-2-35.6
	C66.7,21.4,57.3,13.1,45.6,9L43.9,13.8z"/>
<path class="st1" d="M48.9,43.8c2.4,5,2.2,10.8-0.6,15.5l4.8,1.7c3.1-6,3.3-13.1,0.3-19.3c-3-6.1-8.6-10.3-15.1-11.6l-1.6,4.8
	C42,35.5,46.6,38.9,48.9,43.8z"/>
<path class="st1" d="M59.5,63.1l4.7,1.6c3.3-9,2.9-19.1-1.3-27.8c-4.2-8.6-11.7-15.1-20.7-18.1l-1.6,4.7c7.8,2.6,14.3,8.2,17.9,15.6
	C62,46.6,62.4,55.3,59.5,63.1z"/>
</svg>
