<?xml version="1.0" encoding="utf-8"?>
<!-- Generator: Adobe Illustrator 22.0.1, SVG Export Plug-In . SVG Version: 6.00 Build 0)  -->
<svg version="1.1" xmlns="http://www.w3.org/2000/svg" xmlns:xlink="http://www.w3.org/1999/xlink" x="0px" y="0px"
	 viewBox="0 0 144.8 47.9" style="enable-background:new 0 0 144.8 47.9;" xml:space="preserve">
<style type="text/css">
	.st0{fill:#F2DF42;}
	.st1{fill:#55BCB3;}
</style>
<g id="Your_Design">
</g>
<g id="Artwork_Guidelines">
	<g>
		<path class="st0" d="M30.4,32.2h-3.7V14.1h-0.1L15.2,28.5L3.8,14.1l-0.1,0v18.1H0V10h4.6l10.6,13.4L25.9,10h4.6V32.2z"/>
		<path class="st0" d="M79.7,32.2h-4l-2.6-5H58.2l-2.6,5h-4L63.3,10H68L79.7,32.2z M71.3,23.9l-5.6-10.7L60,23.9H71.3z"/>
		<path class="st0" d="M110.3,32.2h-4.6L88.8,14v18.2h-3.7V10h4.6l16.9,18.2V10h3.7V32.2z"/>
		<path class="st0" d="M132.2,10c3.9,0,6.9,1,9.2,3.1c2.3,2,3.4,4.8,3.4,8.2c0,3.2-1.2,5.8-3.6,7.9c-2.2,2-5,2.9-8.3,2.9h-14.7V10
			H132.2z M133.2,28.9c2.2,0,4-0.7,5.4-2.1c1.4-1.4,2.1-3.3,2.1-5.5c0-2.4-0.8-4.3-2.3-5.7c-1.5-1.5-3.5-2.2-6-2.2h-10.6v15.5H133.2
			z"/>
		<g>
			<g>
				<path class="st1" d="M44.3,0c-4.8,0-8.7,3.9-8.7,8.7c0,4.2,3,7.7,6.9,8.5v15H46v-15c4-0.8,7-4.3,7-8.5C53,3.9,49.1,0,44.3,0z
					 M44.3,13.9c-2.9,0-5.2-2.3-5.2-5.2c0-2.9,2.3-5.2,5.2-5.2c2.9,0,5.2,2.3,5.2,5.2C49.5,11.6,47.1,13.9,44.3,13.9z"/>
			</g>
		</g>
		<path class="st0" d="M104.7,47.8c-1.2,0-2.1-0.4-3-1.2l0.4-0.4c0.8,0.8,1.6,1.1,2.7,1.1c1.1,0,1.9-0.6,1.9-1.5v0
			c0-0.8-0.4-1.2-2.1-1.6c-1.8-0.4-2.5-1-2.5-2.1v0c0-1.1,1-2,2.4-2c1.1,0,1.8,0.3,2.6,0.9l-0.4,0.4c-0.7-0.6-1.4-0.8-2.2-0.8
			c-1.1,0-1.8,0.6-1.8,1.4v0c0,0.8,0.4,1.3,2.2,1.6c1.7,0.4,2.5,1,2.5,2.1v0C107.1,47,106.1,47.8,104.7,47.8z"/>
		<path class="st0" d="M111.8,40.8v7h-0.6v-7h-2.6v-0.5h5.8v0.5H111.8z"/>
		<path class="st0" d="M119.3,47.8c-1.8,0-3.1-1.1-3.1-3.2v-4.4h0.6v4.3c0,1.8,1,2.8,2.5,2.8c1.5,0,2.5-0.9,2.5-2.7v-4.4h0.6v4.3
			C122.4,46.7,121.1,47.8,119.3,47.8z"/>
		<path class="st0" d="M127.2,47.7h-2.5v-7.5h2.5c2.3,0,4,1.6,4,3.7v0C131.2,46.1,129.6,47.7,127.2,47.7z M130.6,44
			c0-1.8-1.3-3.2-3.4-3.2h-1.9v6.4h1.9C129.3,47.2,130.6,45.8,130.6,44L130.6,44z"/>
		<path class="st0" d="M133.5,47.7v-7.5h0.6v7.5H133.5z"/>
		<path class="st0" d="M140.1,47.9c-2.3,0-3.7-1.8-3.7-3.8v0c0-2,1.5-3.9,3.8-3.9s3.7,1.8,3.7,3.8c0,0,0,0,0,0
			C143.8,46,142.3,47.9,140.1,47.9z M143.3,44c0-1.8-1.3-3.4-3.2-3.4c-1.8,0-3.2,1.5-3.2,3.3v0c0,1.8,1.3,3.4,3.2,3.4
			C141.9,47.4,143.3,45.9,143.3,44L143.3,44z"/>
	</g>
</g>
</svg>
